<?xml version="1.0" encoding="utf-8" ?><svg xmlns="http://www.w3.org/2000/svg" xmlns:xlink="http://www.w3.org/1999/xlink" width="178" height="181" viewBox="0 0 178 181"><path fill="white" d="M78.3957 11.0856C81.632 10.7878 85.4848 11.6791 86.3837 15.3159C87.5317 19.9606 87.0911 25.1228 87.0799 29.9103L87.0712 49.109C87.0706 59.7812 87.1616 70.4562 87.0563 81.127C87.1622 83.7073 85.9919 84.9081 84.001 86.2868C81.9419 87.7128 80.0385 88.0939 77.5252 88.109C72.1609 88.1413 66.7271 88.0612 61.358 88.0722L19.5467 88.1607C8.40773 87.4647 9.73714 82.343 11.0614 73.6079C15.0601 47.2324 34.763 24.3631 59.677 15.3247C65.6057 13.1738 72.1801 11.9393 78.3957 11.0856Z"/><path fill="white" d="M102.178 11.8594C114.389 11.8007 129.601 17.3989 139.491 24.0915C156.876 35.8372 168.763 54.7623 172.103 75.4516C172.998 80.9935 174.377 86.6803 167.063 87.9881L166.732 88.0151C162.89 88.3028 158.044 88.1733 154.115 88.1769L132.874 88.1894L114.193 88.1928C110.373 88.1929 106.517 88.2733 102.704 88.0128C100.201 87.8418 98.1623 87.5005 96.8485 85.0771C96.19 83.8625 96.0284 82.5144 95.978 81.1527C95.9072 76.5081 95.9531 71.8569 95.9529 67.2105L95.9536 40.1272L95.9599 25.5606C95.964 20.0096 95.07 16.4862 99.0216 12.2012C99.9536 12.0152 101.21 11.9439 102.178 11.8594Z"/><path fill="white" d="M164.199 95.3502C166.538 95.5048 169.188 97.0528 170.45 99.0486L170.532 99.1801C171.354 100.487 171.063 111.404 171.062 113.628L171.052 135.539C171.051 145.868 171.172 156.298 171.013 166.625C170.975 169.081 169.451 170.259 167.73 171.809C164.171 172.548 151.495 172.076 147.191 172.067L102.045 172.149C98.2934 172.008 97.5033 171.68 95.198 168.719C92.6194 155.443 102.678 133.708 110.719 123.621C119.828 112.195 133.479 102.542 147.606 98.4602C152.778 96.9658 158.857 96.0312 164.199 95.3502Z"/><path fill="white" d="M59.2933 96.6479C62.8406 96.2586 66.6457 96.6569 70.3685 96.771C74.6117 97.0209 79.933 96.1212 83.9462 97.5518C85.823 98.2208 87.0571 102.853 87.0723 104.646C87.1427 112.936 87.0748 121.225 87.0771 129.514L87.0897 152.814C87.0956 156.291 87.5496 166.821 86.2777 169.04C80.3112 179.448 52.8731 166.344 47.1862 163.009C27.0152 150.638 12.4198 129.07 10.3487 105.413C10.0454 101.948 10.8184 99.7865 13.0296 97.1986C17.9402 96.4041 23.4911 97.0658 28.4604 96.9529C38.532 96.7241 49.2728 97.4131 59.2933 96.6479Z"/></svg>