<?xml version="1.0" encoding="utf-8" ?><svg xmlns="http://www.w3.org/2000/svg" xmlns:xlink="http://www.w3.org/1999/xlink" width="417" height="417" viewBox="0 0 417 417"><path d="M129.17 122.084C131.769 121.524 134.669 122.158 136.381 124.324C138.938 127.559 138.103 133.905 138.099 138.027L138.091 156.596L138.108 180.565C138.118 184.652 138.303 190.581 137.993 194.543C135.128 198.015 132.889 199.139 128.416 199.089C123.514 199.035 118.553 199.065 113.649 199.06L70.5121 199.065C68.1984 199.061 66.317 199.043 64.3236 197.736C59.5283 194.593 61.3764 189.424 62.0656 184.991C64.6221 168.548 72.0035 155.076 83.7956 143.533C97.0145 130.594 110.912 124.486 129.17 122.084Z"/><path d="M153.891 122.87C163.581 122.496 179.413 128.11 187.575 133.144C206.902 145.064 220.236 165.346 223.35 187.86C224.052 192.932 225.071 197.913 218.063 199.019C213.63 199.204 208.614 199.075 204.121 199.073L179.888 199.072L163.289 199.078C160.039 199.08 156.897 199.058 153.658 198.954C145.716 198.699 146.942 191.686 146.938 185.837L146.93 171.679C146.926 157.998 146.916 144.316 146.958 130.635C146.968 127.047 147.798 125.443 150.367 123.001L153.891 122.87Z"/><path d="M214.663 206.329C217.379 205.753 220.36 208.608 221.957 210.454C222.193 214.431 222.074 219.083 222.072 223.125L222.06 244.323L222.093 266.236C222.099 270.405 222.219 275.218 221.999 279.307C220.885 280.862 219.926 281.823 218.433 282.977C212.269 283.359 202.661 283.065 196.249 283.061L153.545 283.059L149.797 282.987C147.93 281.764 147.308 281.077 146.036 279.273C144.891 265.486 151.587 248.942 159.441 237.821C168.976 224.318 184.252 213.496 200.167 209.038C204.763 207.751 209.906 207.117 214.663 206.329Z"/><path d="M113.533 207.329C116.946 207.603 120.659 208.017 124.078 207.854C127.758 207.679 130.943 207.788 134.613 208.049C139.226 212.067 138.114 217.251 138.11 222.89L138.097 239.025L138.114 264.468C138.117 269.1 138.251 274.637 137.998 279.185C134.638 284.309 132.452 284.395 126.636 283.706C116.714 282.531 105.616 278.799 97.2848 273.322C91.5003 270.262 85.2962 264.197 80.9113 259.549C71.2083 249.124 64.1052 235.448 62.1084 221.278C61.3762 216.083 59.9768 212.041 64.321 207.994C74.5097 207.645 85.4536 208.159 95.7127 207.966C102.157 207.845 106.98 208.187 113.533 207.329Z"/><path d="M328.61 216.606C329.71 217.124 330.623 217.913 331.16 219.027C337.159 231.47 343.648 243.596 349.171 256.267C352.061 262.899 356.266 269.058 358.57 276.01C354.464 276.061 350.161 276.181 346.074 276.016C344.224 272.514 342.988 268.728 340.937 265.136C337.847 264.934 333.79 265.042 330.625 265.043C326.15 265.047 321.709 265.046 317.233 264.979C315.04 268.216 313.848 273.286 311.898 276.003C308.146 276.055 304.447 276.021 300.696 275.983C301.045 271.454 304.928 265.232 306.946 261.018L317.535 238.778C319.632 234.439 325.951 219.911 328.61 216.606ZM321.601 254.902C324.493 254.923 327.424 254.971 330.312 254.953C332.276 254.932 334.373 254.949 336.324 254.852C335.818 252.724 330.286 240.38 329.152 238.844L328.667 238.592C327.139 242.282 323.454 251.681 321.601 254.902Z"/><path d="M240.189 218.048C250.73 217.613 261.564 218.153 272.13 217.936C273.891 217.9 278.817 217.699 279.722 219.178C279.609 220.421 255.768 261.019 252.996 266.002C256.677 265.966 276.27 265.533 278.329 266.552C279.292 267.802 279.12 269.676 279.139 271.289C279.162 273.304 279.361 274.463 277.963 275.895C274.263 276.283 264.499 276.075 260.36 276.04C252.54 275.975 243.282 276.295 235.579 275.918C236.525 271.963 242.237 262.691 244.408 258.897C250.306 248.594 256.53 238.574 262.39 228.216C255.293 227.968 248.259 228.167 241.137 227.938C238.081 227.84 239.205 223.494 238.935 221.372C238.78 220.159 239.179 218.837 240.189 218.048Z"/><path d="M288.227 217.087C290.951 216.88 295.575 216.337 297.401 218.739C297.908 219.406 298.049 222.065 298.054 222.958C298.115 233.845 298.065 244.734 298.078 255.622L298.085 267.87C298.082 270.207 298.694 274.553 296.769 275.957C293.598 276.09 290.162 276.036 286.969 276.043C286.916 273.258 286.909 270.438 286.941 267.636C287.13 251.28 286.694 234.865 287.126 218.528C287.143 217.872 287.743 217.422 288.227 217.087Z"/></svg>